<svg version="1.2" xmlns="http://www.w3.org/2000/svg" viewBox="0 0 126 38" width="126" height="38">
	<title>logo</title>
	<defs>
		<linearGradient id="g1" x2="1" gradientUnits="userSpaceOnUse" gradientTransform="matrix(.756,6.641,-2.535,.289,31.228,15.292)">
			<stop offset="0" stop-color="#f0584b"/>
			<stop offset="1" stop-color="#c73f3d"/>
		</linearGradient>
		<linearGradient id="g2" x2="1" gradientUnits="userSpaceOnUse" gradientTransform="matrix(0,-42.604,0,0,NaN,NaN)">
			<stop offset="0" stop-color="#fcba39"/>
			<stop offset="1" stop-color="#d96d2d"/>
		</linearGradient>
		<linearGradient id="g3" x2="1" gradientUnits="userSpaceOnUse" gradientTransform="matrix(NaN,NaN,NaN,NaN,NaN,NaN)">
			<stop offset="0" stop-color="#fcba39"/>
			<stop offset="1" stop-color="#d96d2d"/>
		</linearGradient>
		<radialGradient id="g4" cx="0" cy="0" r="1" gradientUnits="userSpaceOnUse" gradientTransform="matrix(.75,-14.675,14.675,.75,17.338,20.26)">
			<stop offset="0" stop-color="#f9b314"/>
			<stop offset="1" stop-color="#ec5222"/>
		</radialGradient>
		<radialGradient id="g5" cx="0" cy="0" r="1" gradientUnits="userSpaceOnUse" gradientTransform="matrix(14.185,0,0,14.185,3678.7,-3931.278)">
			<stop offset="0" stop-color="#f9b314"/>
			<stop offset="1" stop-color="#ec5222"/>
		</radialGradient>
		<radialGradient id="g6" cx="0" cy="0" r="1" gradientUnits="userSpaceOnUse" gradientTransform="matrix(.353,0,0,.353,33.775,18.665)">
			<stop offset="0" stop-color="#f9b314"/>
			<stop offset="1" stop-color="#ec5222"/>
		</radialGradient>
		<linearGradient id="g7" x2="1" gradientUnits="userSpaceOnUse" gradientTransform="matrix(20.943,0,0,62.829,2725.599,3721.922)">
			<stop offset="0" stop-color="#fcba39"/>
			<stop offset="1" stop-color="#d96d2d"/>
		</linearGradient>
		<radialGradient id="g8" cx="0" cy="0" r="1" gradientUnits="userSpaceOnUse" gradientTransform="matrix(.125,0,0,.125,34.346,19.924)">
			<stop offset="0" stop-color="#f9b314"/>
			<stop offset="1" stop-color="#ec5222"/>
		</radialGradient>
		<linearGradient id="g9" x2="1" gradientUnits="userSpaceOnUse" gradientTransform="matrix(20.959,0,0,10.48,2725.589,3723.66)">
			<stop offset="0" stop-color="#fcba39"/>
			<stop offset="1" stop-color="#d96d2d"/>
		</linearGradient>
		<radialGradient id="g10" cx="0" cy="0" r="1" gradientUnits="userSpaceOnUse" gradientTransform="matrix(.074,0,0,.074,32.2,27.763)">
			<stop offset="0" stop-color="#f9b314"/>
			<stop offset="1" stop-color="#ec5222"/>
		</radialGradient>
		<linearGradient id="g11" x2="1" gradientUnits="userSpaceOnUse" gradientTransform="matrix(20.955,0,0,11.216,2725.592,3729.619)">
			<stop offset="0" stop-color="#fcba39"/>
			<stop offset="1" stop-color="#d96d2d"/>
		</linearGradient>
		<linearGradient id="g12" x2="1" gradientUnits="userSpaceOnUse" gradientTransform="matrix(20.79,0,0,20.79,2725.631,3723.821)">
			<stop offset="0" stop-color="#fcba39"/>
			<stop offset="1" stop-color="#d96d2d"/>
		</linearGradient>
		<radialGradient id="g13" cx="0" cy="0" r="1" gradientUnits="userSpaceOnUse" gradientTransform="matrix(.043,0,0,.043,32.027,27.953)">
			<stop offset="0" stop-color="#f9b314"/>
			<stop offset="1" stop-color="#ec5222"/>
		</radialGradient>
		<linearGradient id="g14" x2="1" gradientUnits="userSpaceOnUse" gradientTransform="matrix(20.947,0,0,47.131,2725.597,3722.552)">
			<stop offset="0" stop-color="#fcba39"/>
			<stop offset="1" stop-color="#d96d2d"/>
		</linearGradient>
		<radialGradient id="g15" cx="0" cy="0" r="1" gradientUnits="userSpaceOnUse" gradientTransform="matrix(.364,0,0,.364,33.781,18.676)">
			<stop offset="0" stop-color="#f9b314"/>
			<stop offset="1" stop-color="#ec5222"/>
		</radialGradient>
		<linearGradient id="g16" x2="1" gradientUnits="userSpaceOnUse" gradientTransform="matrix(-6.554,-1.092,.78,-4.682,2742.31,3722.431)">
			<stop offset="0" stop-color="#f0584b"/>
			<stop offset="1" stop-color="#c73f3d"/>
		</linearGradient>
		<linearGradient id="g17" x2="1" gradientUnits="userSpaceOnUse" gradientTransform="matrix(-6.585,-1.097,.784,-4.704,2742.279,3722.715)">
			<stop offset="0" stop-color="#f0584b"/>
			<stop offset="1" stop-color="#c73f3d"/>
		</linearGradient>
		<linearGradient id="g18" x2="1" gradientUnits="userSpaceOnUse" gradientTransform="matrix(-6.585,-1.097,1.028,-6.173,2741.75,3725.845)">
			<stop offset="0" stop-color="#f0584b"/>
			<stop offset="1" stop-color="#c73f3d"/>
		</linearGradient>
		<linearGradient id="g19" x2="1" gradientUnits="userSpaceOnUse" gradientTransform="matrix(-6.671,-1.112,6.671,-40.02,2741.934,3725.612)">
			<stop offset="0" stop-color="#f0584b"/>
			<stop offset="1" stop-color="#c73f3d"/>
		</linearGradient>
		<linearGradient id="g20" x2="1" gradientUnits="userSpaceOnUse" gradientTransform="matrix(20.971,0,0,41.942,2725.581,3722.277)">
			<stop offset="0" stop-color="#fcba39"/>
			<stop offset="1" stop-color="#d96d2d"/>
		</linearGradient>
		<linearGradient id="g21" x2="1" gradientUnits="userSpaceOnUse" gradientTransform="matrix(-6.578,-1.096,1.507,-9.046,2742.273,3722.733)">
			<stop offset="0" stop-color="#f0584b"/>
			<stop offset="1" stop-color="#c73f3d"/>
		</linearGradient>
		<linearGradient id="g22" x2="1" gradientUnits="userSpaceOnUse" gradientTransform="matrix(NaN,NaN,NaN,NaN,NaN,NaN)">
			<stop offset="0" stop-color="#fcba39"/>
			<stop offset="1" stop-color="#d96d2d"/>
		</linearGradient>
		<linearGradient id="g23" x2="1" gradientUnits="userSpaceOnUse" gradientTransform="matrix(NaN,NaN,NaN,NaN,NaN,NaN)">
			<stop offset="0" stop-color="#f0584b"/>
			<stop offset="1" stop-color="#c73f3d"/>
		</linearGradient>
		<radialGradient id="g24" cx="0" cy="0" r="1" gradientUnits="userSpaceOnUse" gradientTransform="matrix(.191,0,0,.191,34.163,19.508)">
			<stop offset="0" stop-color="#f9b314"/>
			<stop offset="1" stop-color="#ec5222"/>
		</radialGradient>
		<linearGradient id="g25" x2="1" gradientUnits="userSpaceOnUse" gradientTransform="matrix(-6.584,-1.097,1.807,-10.845,2742.292,3722.634)">
			<stop offset="0" stop-color="#f0584b"/>
			<stop offset="1" stop-color="#c73f3d"/>
		</linearGradient>
		<radialGradient id="g26" cx="0" cy="0" r="1" gradientUnits="userSpaceOnUse" gradientTransform="matrix(.034,0,0,.034,34.442,20.142)">
			<stop offset="0" stop-color="#f9b314"/>
			<stop offset="1" stop-color="#ec5222"/>
		</radialGradient>
		<linearGradient id="g27" x2="1" gradientUnits="userSpaceOnUse" gradientTransform="matrix(-6.544,-1.09,.779,-4.675,2742.304,3722.428)">
			<stop offset="0" stop-color="#f0584b"/>
			<stop offset="1" stop-color="#c73f3d"/>
		</linearGradient>
		<linearGradient id="g28" x2="1" gradientUnits="userSpaceOnUse" gradientTransform="matrix(20.958,0,0,69.165,2725.589,3722.815)">
			<stop offset="0" stop-color="#fcba39"/>
			<stop offset="1" stop-color="#d96d2d"/>
		</linearGradient>
		<radialGradient id="g29" cx="0" cy="0" r="1" gradientUnits="userSpaceOnUse" gradientTransform="matrix(14.189,0,0,14.189,3678.699,-3931.283)">
			<stop offset="0" stop-color="#f9b314"/>
			<stop offset="1" stop-color="#ec5222"/>
		</radialGradient>
	</defs>
	<style>
		.s0 { fill: #00c9db } 
		.s1 { display: none;fill: url(#g1) } 
		.s2 { display: none;fill: url(#g2) } 
		.s3 { display: none;fill: url(#g3) } 
		.s4 { display: none;fill: url(#g4) } 
		.s5 { display: none;fill: url(#g5) } 
		.s6 { display: none;fill: url(#g6) } 
		.s7 { display: none;fill: url(#g7) } 
		.s8 { display: none;fill: url(#g8) } 
		.s9 { display: none;fill: url(#g9) } 
		.s10 { display: none;fill: url(#g10) } 
		.s11 { display: none;fill: url(#g11) } 
		.s12 { display: none;fill: url(#g12) } 
		.s13 { display: none;fill: url(#g13) } 
		.s14 { display: none;fill: url(#g14) } 
		.s15 { display: none;fill: url(#g15) } 
		.s16 { display: none;fill: url(#g16) } 
		.s17 { display: none;fill: url(#g17) } 
		.s18 { display: none;fill: url(#g18) } 
		.s19 { display: none;fill: url(#g19) } 
		.s20 { display: none;fill: url(#g20) } 
		.s21 { display: none;fill: url(#g21) } 
		.s22 { display: none;fill: url(#g22) } 
		.s23 { display: none;fill: url(#g23) } 
		.s24 { display: none;fill: url(#g24) } 
		.s25 { display: none;fill: url(#g25) } 
		.s26 { display: none;fill: url(#g26) } 
		.s27 { display: none;fill: url(#g27) } 
		.s28 { display: none;fill: url(#g28) } 
		.s29 { display: none;fill: url(#g29) } 
		.s30 { display: none;fill: #00c9db } 
		.s31 { display: none;fill: #f1f1f8 } 
		.s32 { fill: #ffffff } 
	</style>
	<path class="s0" d="m30.4 12.8q-0.1-0.2-0.3-0.6c-4.8-7.3-11.4-12.9-14.7-12.1q-0.4 0.1-0.9 0.3-0.4 0.2-0.7 0.5-0.4 0.3-0.7 0.6-0.4 0.4-0.6 0.8 0.8 0 1.5 0.2 0.8 0.2 1.5 0.5 0.7 0.2 1.4 0.6 0.7 0.4 1.3 0.9 0.5 0.3 0.9 0.6 0.5 0.3 0.9 0.6 0.5 0.3 0.9 0.7 0.4 0.4 0.8 0.7c1.6 1.3 6.8 7.3 9.8 14.4 1.1 2.9 1.4 5.2 0.8 6.2-0.7 1-3.3 1.7-6.7 1.7q-0.1 0.5-0.2 0.9-0.2 0.4-0.3 0.8-0.2 0.4-0.3 0.8-0.2 0.4-0.4 0.8c5.5 0.2 10-0.8 11.3-2.8 1.8-2.7-0.7-10.3-5.3-17.1z"/>
	<path class="s1" d="m34.5 20.2q-0.4-1-0.9-2-0.2 0.6-0.4 1.2-0.2 0.5-0.4 1.1-0.2 0.6-0.4 1.1-0.3 0.6-0.5 1.1c0.7 2.3 0.9 4.2 0.4 5q-0.1 0.1-0.1 0.1-0.1 0.1-0.2 0.2 0 0-0.1 0.1-0.1 0-0.2 0.1c1.3-0.7 3.8-1.9 2.8-8z"/>
	<path class="s0" d="m30.8 8.9h0.1c0.8 0.9 0.7 3.8-0.2 7.3-3.5 9.5-5.4 10.6-9.5 14.7-2.8 2.2-5.3 3.4-6.5 3h-0.1c-0.8-0.2-1.6-1.4-2.4-3.2q-0.5-0.2-1-0.3-0.5-0.2-1-0.4-0.5-0.1-1-0.3-0.5-0.2-1-0.4c1.3 4.5 3.2 7.9 5.2 8.5 3 1.1 9.4-3.1 14.7-9.2 6.6-7.9 8.3-19.7 5.8-22.5-1.7-1.7-6.3-2-11.8-0.9q0.5 0.3 1 0.7 0.5 0.3 1 0.6 0.5 0.4 1 0.8 0.4 0.3 0.9 0.7c2.4-0.1 4.2 0.2 4.8 0.9z"/>
	<path class="s2" d="m34 19.2v-0.1z"/>
	<path class="s3" d="m34.4 20.1z"/>
	<path class="s4" d="m34.4 20.1q-0.1-0.4-0.3-0.8 0.1 0.3 0.2 0.5 0 0.1 0.1 0.3z"/>
	<path class="s5" d="m34.5 20.2c1.5 3.5 2.1 6.7 1.6 8.7 0.5-2-0.1-5.2-1.6-8.7z"/>
	<path class="s6" d="m33.6 18.2q0.2 0.5 0.4 0.9-0.2-0.4-0.4-0.9z"/>
	<path class="s7" d="m34.4 20.1q-0.1-0.2-0.1-0.3 0.1 0.1 0.1 0.3z"/>
	<path class="s8" d="m34.4 20.1q-0.1-0.2-0.1-0.3 0.1 0.1 0.1 0.3z"/>
	<path class="s9" d="m32.1 27.8q0.1 0 0.1 0 0-0.1 0-0.1 0.1 0 0.1 0 0 0-0.1 0 0 0 0 0.1 0 0-0.1 0z"/>
	<path class="s10" d="m32.1 27.8q0.1 0 0.1 0 0-0.1 0-0.1 0.1 0 0.1 0 0 0-0.1 0 0 0 0 0.1 0 0-0.1 0z"/>
	<path class="s11" d="m34.5 20.2c1 6.1-1.5 7.3-2.8 8-1.1 0.7-3.5 1.2-6.5 1.2q-1.1 0-2.3-0.2-1.1-0.1-2.2-0.3-1.2-0.2-2.3-0.5-1.1-0.3-2.2-0.6 0 0.2 0 0.4 0.1 0.1 0.1 0.3 0 0.2 0 0.3 0.1 0.2 0.1 0.4 0 0.2 0.1 0.5c8.3 2.2 17.2 1.2 19.6-0.8 0.5-2-0.1-5.2-1.6-8.7z"/>
	<path class="s12" d="m32 28l0.1-0.1z"/>
	<path class="s13" d="m32 28l0.1-0.1z"/>
	<path class="s14" d="m34 19.1q-0.2-0.4-0.4-0.9 0.2 0.5 0.4 0.9z"/>
	<path class="s15" d="m34 19.1q-0.2-0.4-0.4-0.9 0.2 0.5 0.4 0.9z"/>
	<path class="s16" d="m34.5 20.2q-0.1-0.1-0.1-0.1z"/>
	<path class="s17" d="m34.1 19.3l-0.1-0.1q0 0 0.1 0.1z"/>
	<path class="s18" d="m31.7 28.2q0.1 0 0.1-0.1 0 0 0.1 0 0 0 0-0.1 0.1 0 0.1 0 0 0-0.1 0 0 0.1 0 0.1-0.1 0-0.1 0 0 0.1-0.1 0.1z"/>
	<path class="s19" d="m32.1 27.9q0 0 0-0.1 0 0.1 0 0.1z"/>
	<path class="s20" d="m34.1 19.3q-0.1-0.1-0.1-0.1v-0.1q0 0.1 0.1 0.2z"/>
	<path class="s21" d="m34.1 19.3q-0.1-0.1-0.1-0.1v-0.1q0 0.1 0.1 0.2z"/>
	<path class="s22" d=""/>
	<path class="s23" d=""/>
	<path class="s24" d="m34.3 19.8q-0.1-0.2-0.2-0.5 0.1 0.2 0.2 0.5z"/>
	<path class="s25" d="m34.3 19.8q-0.1-0.2-0.2-0.5 0.1 0.2 0.2 0.5z"/>
	<path class="s26" d="m34.5 20.2l-0.1-0.1q0 0 0.1 0.1z"/>
	<path class="s27" d="m34.5 20.2l-0.1-0.1q0 0 0.1 0.1z"/>
	<path class="s28" d="m34.5 20.2q-0.1-0.1-0.1-0.1 0-0.2-0.1-0.3-0.1-0.3-0.2-0.5-0.1-0.1-0.1-0.2-0.2-0.4-0.4-0.9-0.2 0.6-0.4 1.2-0.2 0.5-0.4 1.1-0.2 0.5-0.4 1.1-0.3 0.6-0.5 1.1c0.7 2.3 0.9 4.1 0.4 4.9v0.1q0 0-0.1 0 0 0 0 0.1 0 0-0.1 0 0 0.1 0 0.1-0.1 0-0.1 0.1 0 0-0.1 0 0 0.1 0 0.1-0.1 0-0.1 0 0 0.1-0.1 0.1c1.3-0.7 3.8-1.9 2.8-8z"/>
	<path class="s29" d="m34.5 20.2q-0.1-0.1-0.1-0.1 0-0.2-0.1-0.3-0.1-0.3-0.2-0.5-0.1-0.1-0.1-0.2-0.2-0.4-0.4-0.9-0.2 0.6-0.4 1.2-0.2 0.5-0.4 1.1-0.2 0.5-0.4 1.1-0.3 0.6-0.5 1.1c0.7 2.3 0.9 4.1 0.4 4.9v0.1q0 0-0.1 0 0 0 0 0.1 0 0-0.1 0 0 0.1 0 0.1-0.1 0-0.1 0.1 0 0-0.1 0 0 0.1 0 0.1-0.1 0-0.1 0 0 0.1-0.1 0.1c1.3-0.7 3.8-1.9 2.8-8z"/>
	<path class="s0" d="m34.1 19.3q-0.1-0.1-0.1-0.2-0.2-0.4-0.4-0.9-0.2 0.6-0.4 1.2-0.2 0.5-0.4 1.1-0.2 0.6-0.4 1.1-0.3 0.6-0.5 1.1c0.7 2.3 0.9 4.2 0.4 5q0 0-0.1 0 0 0 0 0.1 0 0-0.1 0 0 0.1 0 0.1-0.1 0-0.1 0.1 0 0-0.1 0 0 0.1 0 0.1-0.1 0-0.1 0 0 0.1 0 0.1h-0.1q0 0-0.1 0.1h-0.1q-0.1 0.1-0.2 0.1l-0.1 0.1q-0.1 0-0.2 0.1h-0.1q-0.1 0.1-0.2 0.1-0.3 0.1-0.6 0.2 0 0-0.1 0l-0.2 0.1h-0.3l-0.2 0.1h-0.3l-0.1 0.1q-0.2 0-0.4 0h-0.1q-0.3 0.1-0.6 0.1-0.3 0-0.6 0.1-0.3 0-0.6 0-0.2 0-0.5 0-0.4 0-0.7 0 0.6-0.7 1.2-1.5 1.5-2 2.6-4.1 1.2-2.1 2-4.4 0.9-2.3 1.4-4.7 0.6-2.3 0.8-4.8 0.8 0.3 1.6 0.6c0-2-0.3-3.5-1.1-4.4-1.2-1.3-4-1.8-7.6-1.5h-0.1q-0.3 0-0.6 0.1h-0.2q-0.3 0-0.6 0.1h-0.2q-0.3 0-0.7 0.1h-0.2q-0.3 0.1-0.6 0.1l-0.3 0.1-0.5 0.1h-0.2q-0.7 0.2-1.5 0.3-0.8 0.2-1.5 0.4-0.7 0.2-1.5 0.5-0.7 0.2-1.5 0.5-0.3 0.1-0.6 0.2c-6.3 2-11.9 5.4-14.3 8.4v0.1q-0.2 0.2-0.3 0.4-0.2 0.2-0.3 0.4-0.1 0.2-0.2 0.4-0.1 0.3-0.2 0.5 0 0.1-0.1 0.1 0 0.1 0 0.1 0 0.1 0 0.1 0 0.1 0 0.1 0 0.1-0.1 0.1 0 0.1 0 0.2 0 0 0 0.1 0 0 0 0.1c-0.1 1.8 1.6 4.1 4.3 6.5q0-0.2 0-0.3 0-0.1-0.1-0.3 0-0.1 0-0.3 0-0.1 0-0.2 1 0.7 2.1 1.4 1.1 0.7 2.1 1.3 1.1 0.6 2.3 1.2 1.1 0.5 2.3 1 0.4 0.2 0.8 0.3 0.5 0.2 0.9 0.4 0.5 0.1 0.9 0.2 0.5 0.2 0.9 0.3 0.3 0.1 0.5 0.1l0.2 0.1q-0.4-0.1-0.7-0.2 0.1 0.3 0.2 0.6 0.1 0.2 0.2 0.5 0.1 0.3 0.2 0.5 0.2 0.3 0.3 0.5 1 0.3 1.9 0.5c-2 1.3-3.7 1.9-4.6 1.6h-0.1c-0.8-0.2-1.6-1.4-2.4-3.2q-1.8-0.5-3.4-1.2l-0.6-0.1c1.3 4.4 3.1 7.7 5.1 8.4 1.9 0.6 5.5-1.5 9.1-5.1 6.4 0.6 12.1-0.7 13.3-2.8q0.1-0.1 0.1-0.2 0.1-0.2 0.1-0.3 0.1-0.1 0.1-0.2 0.1-0.2 0.1-0.3-0.1 0.1-0.3 0.2 0.1 0 0.1-0.1 0 0 0.1 0 0 0 0-0.1 0.1 0 0.1 0c0.6-2.2-0.3-5.7-2-9.6zm0.9 10.3q0.2-0.1 0.3-0.2-0.1 0.1-0.2 0.1-0.1 0.1-0.2 0.1-0.1 0.1-0.2 0.1-0.1 0-0.2 0.1 0.1-0.1 0.3-0.2 0.1 0 0.2 0zm-1.3 0.4h0.2q0.2-0.1 0.3-0.1-0.5 0.1-1.1 0.3 0.3-0.1 0.6-0.2zm-0.7 0.2h0.1q-0.3 0.1-0.7 0.2l0.1-0.1q0.2 0 0.5-0.1zm-0.7 0.2q-0.7 0.1-1.5 0.3l0.1-0.1q0.7-0.1 1.4-0.2zm-2.3 0.4q0.4-0.1 0.7-0.1-0.4 0-0.8 0.1zm0 0q-0.8 0-1.8 0.1 1 0 1.8-0.1zm-21.2-6.8q-0.5-0.4-1.1-0.8-0.5-0.5-1-0.9-0.4-0.5-0.9-1-0.4-0.5-0.8-1-0.1-0.1-0.2-0.2 0-0.1 0-0.1-0.1-0.1-0.1-0.2-0.1 0-0.1-0.1-0.1-0.1-0.1-0.2 0 0-0.1-0.1 0-0.1 0-0.2-0.1 0-0.1-0.1 0 0 0-0.1-0.1-0.1-0.1-0.1 0-0.1 0-0.2 0-0.1 0-0.1 0-0.1 0-0.1 0-0.1 0-0.1 0 0 0-0.1 0 0 0-0.1 0-0.1 0-0.1 0-0.1 0.1-0.1 0-0.1 0-0.1 0-0.1 0.1-0.2 0 0 0-0.1 0 0 0.1-0.1l0.1-0.1q0-0.1 0-0.2 0.1 0 0.1-0.1 0.1 0 0.1-0.1 0.1-0.1 0.2-0.2l0.1-0.1q0-0.1 0.1-0.2l0.1-0.1q0.2-0.2 0.6-0.5v-0.1q0.1-0.1 0.2-0.2 0.3-0.2 0.6-0.4 0.2-0.2 0.4-0.4 0.2-0.2 0.5-0.3 0.2-0.2 0.4-0.3 0.3-0.2 0.5-0.3 2-1 4-1.8 2-0.9 4-1.6 2-0.7 4.1-1.3 2.1-0.6 4.2-1.1 0.7-0.1 1.3-0.1 0.3 0 0.6 0 0.3 0 0.6 0 0.3 0 0.6 0 0.3 0 0.6 0 0.2 0 0.3 0.1 0.2 0 0.3 0 0.1 0 0.2 0 0.1 0.1 0.2 0.1 0.1 0 0.2 0.1 0.1 0 0.2 0h0.1l0.2 0.1q0 0 0.1 0 0 0.1 0.1 0.1 0 0 0.1 0.1 0 0 0.1 0 0 0.1 0.1 0.1 0 0 0.1 0 0 0.1 0 0.1 0.1 0 0.1 0 0 0.1 0 0.1 0.1 0 0.1 0.1 0 0 0.1 0.1 0 0.1 0 0.1 0 0 0.1 0.1 0 0 0 0.1c0.5 1.2 0.4 3.7-0.4 6.8-3 8-4.8 10-7.8 13-7.9-1-9.6-2.5-14.2-5.2zm12.7 6.7q-1.6-0.2-3.1-0.6 0.4 0.1 0.9 0.2h0.1q1.1 0.2 2.1 0.4zm-4.2-0.8q0.5 0.1 1 0.2-0.5-0.1-1-0.2zm6.9 1q1.1 0.1 2 0.1h0.1q1 0 1.9-0.1-0.5 0-1 0-0.5 0.1-1 0.1-0.5 0-1-0.1-0.5 0-1 0zm11.3-1.5l0.1-0.1q0.1 0 0.2-0.1-0.1 0.1-0.3 0.2z"/>
	<path class="s0" d="m33.6 18.2q-0.2 0.6-0.4 1.2-0.2 0.5-0.4 1.1-0.2 0.6-0.4 1.1-0.3 0.6-0.5 1.1c0.7 2.3 0.9 4.2 0.4 5-0.7 1-3.4 1.7-7.1 1.7-7.7-0.7-10.3-1.8-13.5-3.6-0.7-0.5-1.5-0.9-2.3-1.4l-0.7-0.4q-0.4-0.4-0.9-0.7-0.4-0.4-0.8-0.8-0.5-0.3-0.9-0.7-0.4-0.5-0.7-0.9-0.3-0.2-0.5-0.5-0.2-0.3-0.4-0.6-0.1-0.3-0.3-0.7-0.1-0.3-0.1-0.7c0-0.9 1-2 2.5-3.2q0-0.6 0-1.1 0-0.5 0.1-1 0-0.6 0-1.1 0.1-0.5 0.2-1.1c-4.1 2.4-6.8 5.2-6.9 7.3-0.2 2.6 3.6 6.5 8.9 9.8q0.4 0.3 0.9 0.5v0.1q0.5 0.3 0.9 0.5h0.1q0.4 0.2 0.8 0.5l0.2 0.1q0.4 0.2 0.8 0.4h0.1c9.4 4.4 21.2 2.7 23-0.2 1.3-2 0.3-6.7-2.1-11.7z"/>
	<path class="s0" d="m14.7 33.9h-0.1c-1.1-0.4-2.5-2.8-3.5-6.4-1.6-9.9-0.5-11.8 1-17.5 1.3-3.3 2.9-5.6 4.1-5.9h0.1c0.8-0.2 2.1 0.4 3.7 1.6q0.5-0.1 1-0.3 0.5-0.1 1-0.2 0.5-0.1 1.1-0.2 0.5-0.1 1-0.1c-3.3-3.3-6.6-5.3-8.7-4.8-3.1 0.6-6.6 7.4-8.2 15.3-1.8 10.3 2.7 21.4 6.2 22.4 2.3 0.7 6.5-1.4 10.7-5.1q-0.6 0-1.2 0-0.6-0.1-1.2-0.1-0.6-0.1-1.2-0.2-0.6 0-1.2-0.1c-2 1.3-3.7 1.9-4.6 1.6z"/>
	<path class="s0" d="m15.5 0.1c-2.7 0.6-5.5 7.4-6.6 15.2-1.3 9.9 2.7 20.7 5.6 22.7 2.4-0.1 6-2.1 9.5-5.3q-0.5 0-1.1 0-0.6-0.1-1.2-0.1-0.6-0.1-1.2-0.2-0.6 0-1.2-0.1c-2 1.3-3.7 1.9-4.6 1.6h-0.1c-1.1-0.4-2.5-2.8-3.5-6.4-1.6-9.9-0.5-11.8 1-17.5 1.3-3.3 2.9-5.6 4.1-5.9h0.1c0.8-0.2 2.1 0.4 3.7 1.6q1.8-0.5 3.5-0.7l0.6-0.2c-3.3-3.2-6.6-5.2-8.6-4.7z"/>
	<path class="s0" d="m22.4 34.1q0.8-0.6 1.6-1.4-0.5 0-1.1 0-0.6-0.1-1.2-0.1-0.6-0.1-1.2-0.2-0.6 0-1.2-0.1c-2 1.3-3.7 1.9-4.6 1.6h-0.1q-0.1 0-0.1-0.1-0.1 0-0.2 0-0.1-0.1-0.2-0.1 0-0.1-0.1-0.2c1 1.1 2.8 3.2 8.4 0.6z"/>
	<path class="s30" d="m24.1 4.8q-0.7-0.5-1.4-0.9-0.7-0.3-1.5-0.5-0.8-0.1-1.6-0.1-0.8 0-1.6 0.2-0.2 0-0.5 0.1-0.2 0.1-0.5 0.2-0.2 0-0.4 0.1-0.3 0.1-0.5 0.2 0.1 0 0.1 0h0.1c0.8-0.2 2.1 0.4 3.7 1.6q1.8-0.5 3.5-0.7z"/>
	<path class="s31" d="m62.5 32.2h-14.6v-26.3h4.4v22.6h10.2z"/>
	<path class="s31" d="m81.8 24h-12.8q0 0.5 0.1 1.1 0.1 0.5 0.3 1.1 0.2 0.5 0.5 0.9 0.3 0.5 0.7 0.9 0.4 0.4 0.9 0.7 0.5 0.2 1.1 0.4 0.5 0.2 1.1 0.3 0.5 0 1.1 0 0.7 0 1.5-0.1 0.7-0.1 1.4-0.3 0.7-0.3 1.4-0.6 0.6-0.3 1.2-0.8v3.5q-0.7 0.4-1.6 0.7-0.8 0.3-1.6 0.5-0.9 0.2-1.8 0.3-0.9 0.1-1.8 0.1-0.9 0-1.8-0.1-0.9-0.2-1.7-0.5-0.8-0.3-1.6-0.8-0.7-0.5-1.4-1.2-2.3-2.6-2.3-7.2-0.1-1 0.1-2 0.1-0.9 0.5-1.8 0.3-1 0.8-1.8 0.5-0.8 1.2-1.6 0.6-0.6 1.3-1.2 0.8-0.5 1.6-0.9 0.8-0.3 1.7-0.5 0.9-0.2 1.8-0.1 0.9-0.1 1.7 0.1 0.8 0.1 1.6 0.4 0.8 0.3 1.5 0.8 0.6 0.5 1.2 1.1 0.6 0.8 1 1.6 0.4 0.8 0.7 1.7 0.3 0.9 0.4 1.8 0.1 0.9 0 1.8v1.7zm-4.1-3q0-0.5 0-1-0.1-0.5-0.2-0.9-0.2-0.5-0.4-0.9-0.2-0.4-0.5-0.8-0.3-0.3-0.6-0.6-0.3-0.2-0.7-0.4-0.4-0.2-0.8-0.2-0.4-0.1-0.8-0.1-0.5 0-0.9 0.1-0.4 0.1-0.8 0.2-0.4 0.2-0.8 0.5-0.4 0.2-0.6 0.5-0.4 0.4-0.6 0.8-0.3 0.4-0.5 0.9-0.2 0.4-0.3 0.9-0.2 0.5-0.2 0.9h8.7z"/>
	<path class="s31" d="m102.6 32.2h-4.2v-10.6q0-5.3-3.8-5.3-0.4 0-0.9 0.1-0.4 0.1-0.8 0.3-0.5 0.2-0.8 0.5-0.4 0.2-0.7 0.6-0.3 0.4-0.5 0.8-0.3 0.5-0.5 0.9-0.1 0.5-0.2 1-0.1 0.5 0 1v10.7h-4.3v-18.8h4.3v3.1q0.5-0.8 1.1-1.5 0.7-0.7 1.5-1.1 0.8-0.5 1.7-0.7 0.9-0.3 1.8-0.2 0.7-0.1 1.3 0 0.7 0.1 1.3 0.4 0.6 0.3 1.2 0.7 0.5 0.4 0.9 0.9 0.5 0.6 0.8 1.3 0.3 0.7 0.5 1.4 0.2 0.7 0.3 1.5 0.1 0.8 0 1.5z"/>
	<path class="s31" d="m116.2 32.7q-1 0-1.9-0.1-1-0.2-1.9-0.5-0.9-0.4-1.7-0.9-0.8-0.5-1.5-1.2-0.6-0.7-1.1-1.5-0.6-0.8-0.9-1.7-0.3-0.9-0.5-1.9-0.1-0.9-0.1-1.9 0-1 0.1-2 0.2-1 0.5-2 0.4-0.9 0.9-1.8 0.5-0.8 1.2-1.6 0.8-0.7 1.6-1.2 0.9-0.5 1.8-0.8 1-0.4 2-0.5 0.9-0.2 1.9-0.1 1-0.1 1.9 0 1 0.2 1.9 0.5 0.8 0.4 1.6 0.9 0.8 0.5 1.5 1.2 0.7 0.7 1.2 1.5 0.4 0.9 0.8 1.8 0.3 0.9 0.4 1.9 0.1 1 0.1 1.9 0 1-0.1 2-0.2 1-0.5 1.9-0.4 0.9-0.9 1.8-0.5 0.8-1.2 1.6-0.7 0.6-1.5 1.2-0.8 0.5-1.8 0.9-0.9 0.3-1.9 0.5-0.9 0.1-1.9 0.1zm0.2-16.3q-0.6-0.1-1.1 0-0.6 0.1-1.1 0.4-0.5 0.2-1 0.5-0.4 0.4-0.8 0.8-0.4 0.5-0.6 1.1-0.3 0.6-0.5 1.2-0.2 0.6-0.3 1.2-0.1 0.7 0 1.3-0.1 0.6 0 1.3 0.1 0.6 0.3 1.2 0.2 0.6 0.5 1.1 0.3 0.6 0.7 1.1 0.3 0.4 0.8 0.7 0.4 0.4 0.9 0.6 0.5 0.2 1.1 0.3 0.5 0.1 1.1 0.1 0.5 0 1.1-0.1 0.5-0.1 1-0.3 0.5-0.2 1-0.5 0.4-0.4 0.8-0.8 0.3-0.5 0.6-1.1 0.3-0.5 0.4-1.2 0.2-0.6 0.3-1.2 0-0.6 0-1.3 0-0.6 0-1.2-0.1-0.7-0.3-1.3-0.1-0.6-0.4-1.2-0.3-0.5-0.6-1.1-0.4-0.4-0.8-0.7-0.5-0.3-1-0.6-0.5-0.2-1-0.3-0.6-0.1-1.1-0.1z"/>
	<path class="s32" d="m46.2 35v-25.5h-8.1v-6.9h24.9v6.9h-8.1v25.5zm23.1 0c-3.2 0-6-1-8-3-2.2-2-3.2-4.7-3.2-8.1 0-3.3 1.1-6 3.2-8 2.2-2 4.7-3 7.6-3 2.9 0 5.5 1 7.5 2.7 2.1 1.8 3.1 4.3 3.1 7.4v3.8h-5.2l4 4.2-0.6 0.6c-2.4 2.2-5.2 3.4-8.4 3.4zm-3.9-8.2c0.3 0.4 0.6 0.8 1.1 1.1 0.8 0.6 1.7 0.9 2.8 0.9 1.7 0 3-0.6 4.1-1.7l0.4-0.3zm6.7-5.6c-0.2-0.6-0.4-0.9-0.8-1.3-0.6-0.5-1.4-0.7-2.3-0.7-0.9 0-1.7 0.2-2.5 0.8-0.5 0.3-0.8 0.7-1 1.2zm19.8 13.8v-11.7c0-1.3-0.3-1.8-0.5-1.9-0.1-0.2-0.5-0.3-1-0.3-0.7 0-1.2 0.1-1.7 0.6-0.1 0.1-0.5 0.5-0.5 1.8v11.5h-8.4v-22h8.4v0.7c1-0.4 2.1-0.6 3.2-0.6 2.5 0 4.7 0.8 6.3 2.4 1.6 1.6 2.5 3.9 2.5 6.8v12.7zm8.3-11c0-6.1 4.9-11 11-11 6.1 0 11 4.9 11 11 0 6.1-4.9 11-11 11-6.1 0-11-4.9-11-11zm11 3.2c1.8 0 3.2-1.4 3.2-3.2 0-1.8-1.4-3.2-3.2-3.2-1.8 0-3.2 1.4-3.2 3.2 0 1.8 1.4 3.2 3.2 3.2z"/>
</svg>